<?xml version="1.0" encoding="utf-8"?>
<!-- Generator: Adobe Illustrator 17.1.0, SVG Export Plug-In . SVG Version: 6.00 Build 0)  -->
<!DOCTYPE svg PUBLIC "-//W3C//DTD SVG 1.1//EN" "http://www.w3.org/Graphics/SVG/1.1/DTD/svg11.dtd">
<svg version="1.1" id="Layer_1" xmlns="http://www.w3.org/2000/svg" xmlns:xlink="http://www.w3.org/1999/xlink" x="0px" y="0px"
	 viewBox="0 0 150 150" enable-background="new 0 0 150 150" xml:space="preserve">
<polygon fill="#FFFFFF" points="137.2,69.3 127.9,84.4 118.6,69.3 105.8,69.3 105.8,111.6 118.3,111.6 118.3,88 124.6,98 131.6,98 
	137.6,88 137.6,111.6 150,111.6 150,69.3 "/>
<g>
	<path fill="#FFFFFF" d="M91,70.7l-6.4,13.2c1.3,1.8,2,4,2,6.4c0,6.2-5,11.2-11.2,11.2s-11.2-5-11.2-11.2c0-2.4,0.8-4.6,2-6.4
		l-6.4-13.2c-5.8,4.6-9.5,11.7-9.5,19.6c0,13.9,11.2,25.1,25.1,25.1s25.1-11.2,25.1-25.1C100.5,82.4,96.8,75.3,91,70.7"/>
	<path fill="#FFFFFF" d="M0.1,55.7V44.6h2.7C5.5,39.7,6.9,32,6.9,21.7v-8.2H44v31.1h2.7v11.2H0.1z M31.1,44.6V24.6h-12
		c0,3.3-0.3,6.9-0.8,10.8c-0.5,3.9-1.3,6.9-2.4,9.1H31.1z"/>
</g>
<polygon fill="#FFFFFF" points="137.2,13.4 127.9,28.5 118.6,13.4 105.8,13.4 105.8,55.7 118.3,55.7 118.3,32.1 124.6,42.1 
	131.6,42.1 137.6,32.1 137.6,55.7 150,55.7 150,13.4 "/>
<polygon fill="#FFFFFF" points="36,111.6 52,111.6 34,89 49,69.3 33.7,69.3 22.8,83.7 17.6,83.7 17.6,69.3 4.6,69.3 4.6,111.6 
	17.6,111.6 17.6,94.7 22.8,94.7 "/>
<polygon fill="#FFFFFF" points="15,124.2 8.6,132.9 8.6,124.2 4.6,124.2 4.6,139.7 8,139.7 14.5,130.9 14.5,139.7 18.4,139.7 
	18.4,124.2 "/>
<polygon fill="#FFFFFF" points="42.2,124.2 42.2,129.7 36.4,129.7 36.4,124.2 32.4,124.2 32.4,139.7 36.4,139.7 36.4,133.3 
	42.2,133.3 42.2,139.7 46.2,139.7 46.2,124.2 "/>
<g>
	<path fill="#FFFFFF" d="M60.2,139.7v-15.4h7.5c2.8,0,4.8,1.4,4.8,3.9c0,1.5-0.9,2.6-1.8,3c0.7,0.2,1.4,0.6,2,1.3
		c0.6,0.7,0.9,1.6,0.9,2.8c0,1.3-0.5,2.4-1.5,3.2c-1,0.8-2.3,1.2-4,1.2H60.2z M64.1,130.1h3c1,0,1.6-0.5,1.6-1.3
		c0-0.9-0.6-1.4-1.6-1.4h-3V130.1z M64.1,136.4h3.2c1.2,0,1.9-0.6,1.9-1.6c0-1-0.8-1.7-1.9-1.7h-3.2V136.4z"/>
</g>
<polygon fill="#FFFFFF" points="86.9,124.2 86.9,139.7 98.8,139.7 98.8,136.2 90.9,136.2 90.9,133.2 97,133.2 97,129.8 90.9,129.8 
	90.9,127.7 98.6,127.7 98.6,124.2 "/>
<g>
	<path fill="#FFFFFF" d="M113.7,137.7c-1.6-1.5-2.4-3.4-2.4-5.8c0-2.4,0.8-4.3,2.4-5.8c1.6-1.5,3.7-2.2,6.2-2.2c1.5,0,2.8,0.3,4,0.9
		v3.9c-1.2-0.7-2.5-1.1-3.9-1.1c-1.3,0-2.4,0.4-3.2,1.2c-0.9,0.8-1.3,1.9-1.3,3.1c0,1.3,0.4,2.3,1.3,3.2c0.9,0.8,2,1.2,3.4,1.2
		c1.6,0,3-0.4,4.1-1.2v3.9c-1.3,0.6-2.7,1-4.2,1C117.4,140,115.3,139.2,113.7,137.7"/>
</g>
<polygon fill="#FFFFFF" points="136.7,124.2 136.7,127.7 141.4,127.7 141.4,139.7 145.3,139.7 145.3,127.7 150,127.7 150,124.2 "/>
<g>
	<path fill="#FFFFFF" d="M64.1,34.4c0-6.2,5-11.2,11.2-11.2V9.4c-13.9,0-25.1,11.2-25.1,25.1c0,4.6,1.2,8.8,3.4,12.5l21.7,44.9V45.7
		C69.2,45.7,64.1,40.7,64.1,34.4"/>
	<path fill="#B2D9F6" d="M100.5,34.4c0-13.9-11.2-25.1-25.1-25.1v13.8c6.2,0,11.2,5,11.2,11.2s-5,11.2-11.2,11.2v46.2l21.7-44.9
		C99.2,43.3,100.5,39,100.5,34.4"/>
</g>
</svg>
